<svg xmlns="http://www.w3.org/2000/svg" width="40.499" height="39.5" viewBox="0 0 40.499 39.5">
  <path id="iconfinder_mark-github_298822" d="M20.249,0a20.251,20.251,0,0,0-6.4,39.463c1.012.185,1.382-.44,1.382-.974,0-.482-.019-2.079-.028-3.77-5.631,1.224-6.821-2.388-6.821-2.388A5.369,5.369,0,0,0,6.133,29.37c-1.84-1.256.14-1.231.14-1.231a4.25,4.25,0,0,1,3.1,2.086c1.807,3.095,4.741,2.2,5.893,1.681a4.329,4.329,0,0,1,1.285-2.7c-4.5-.512-9.224-2.249-9.224-10.008a7.84,7.84,0,0,1,2.083-5.434,7.294,7.294,0,0,1,.2-5.361s1.7-.544,5.569,2.076a19.169,19.169,0,0,1,10.137,0C29.182,7.854,30.883,8.4,30.883,8.4a7.263,7.263,0,0,1,.2,5.359,7.817,7.817,0,0,1,2.081,5.434c0,7.779-4.736,9.492-9.247,9.994a4.824,4.824,0,0,1,1.374,3.747c0,2.707-.027,4.889-.027,5.557,0,.539.368,1.169,1.394.971A20.253,20.253,0,0,0,20.249,0Z"/>
</svg>
