<svg xmlns="http://www.w3.org/2000/svg" width="41" height="41" viewBox="0 0 41 41">
  <g id="Instagram-white" transform="translate(0 -0.162)">
    <path id="Path_2" data-name="Path 2" d="M20.5.162c-5.568,0-6.266.024-8.452.123a15.048,15.048,0,0,0-4.976.953A10.049,10.049,0,0,0,3.441,3.6,10.049,10.049,0,0,0,1.076,7.233a15.047,15.047,0,0,0-.953,4.976C.024,14.4,0,15.094,0,20.662s.024,6.266.123,8.452a15.047,15.047,0,0,0,.953,4.976,10.05,10.05,0,0,0,2.365,3.631,10.049,10.049,0,0,0,3.631,2.365,15.048,15.048,0,0,0,4.976.953c2.187.1,2.885.123,8.452.123s6.266-.024,8.452-.123a15.047,15.047,0,0,0,4.976-.953,10.482,10.482,0,0,0,6-6,15.047,15.047,0,0,0,.953-4.976c.1-2.187.123-2.885.123-8.452s-.024-6.266-.123-8.452a15.047,15.047,0,0,0-.953-4.976A10.049,10.049,0,0,0,37.559,3.6a10.05,10.05,0,0,0-3.631-2.365A15.047,15.047,0,0,0,28.952.285C26.766.185,26.067.162,20.5.162Zm0,3.694c5.474,0,6.122.021,8.284.119a11.346,11.346,0,0,1,3.807.706,6.352,6.352,0,0,1,2.357,1.534,6.351,6.351,0,0,1,1.534,2.357,11.341,11.341,0,0,1,.706,3.807c.1,2.162.12,2.81.12,8.284s-.021,6.122-.12,8.284a11.341,11.341,0,0,1-.706,3.807,6.789,6.789,0,0,1-3.891,3.891,11.342,11.342,0,0,1-3.807.706c-2.161.1-2.81.12-8.284.12s-6.122-.021-8.284-.12a11.342,11.342,0,0,1-3.807-.706,6.352,6.352,0,0,1-2.357-1.534,6.35,6.35,0,0,1-1.533-2.357,11.343,11.343,0,0,1-.706-3.807c-.1-2.162-.119-2.81-.119-8.284s.021-6.122.119-8.284a11.343,11.343,0,0,1,.706-3.807A6.351,6.351,0,0,1,6.053,6.214,6.353,6.353,0,0,1,8.41,4.681a11.346,11.346,0,0,1,3.807-.706C14.378,3.876,15.026,3.855,20.5,3.855Z" transform="translate(0)" fill="#fff"/>
    <path id="Path_3" data-name="Path 3" d="M135.067,142.062a6.833,6.833,0,1,1,6.833-6.833A6.833,6.833,0,0,1,135.067,142.062Zm0-17.36a10.527,10.527,0,1,0,10.527,10.527A10.527,10.527,0,0,0,135.067,124.7Z" transform="translate(-114.567 -114.567)" fill="#fff"/>
    <path id="Path_4" data-name="Path 4" d="M366.852,91.249a2.46,2.46,0,1,1-2.46-2.46A2.46,2.46,0,0,1,366.852,91.249Z" transform="translate(-332.949 -81.53)" fill="#fff"/>
  </g>
</svg>
