<svg xmlns="http://www.w3.org/2000/svg" width="270.754" height="191.827" viewBox="0 0 270.754 191.827">
  <g id="Layer_2" data-name="Layer 2" transform="translate(-2.06 -8.704)">
    <path id="Path_69" data-name="Path 69" d="M195.008,12.594a15.835,15.835,0,0,0-2.862,9.337,15.835,15.835,0,0,0,2.862,9.337l44.512,60.494H11.736c-5.344,0-9.676,5.888-9.676,13.151s4.332,13.151,9.676,13.151h227.59l-44.318,60.1a16.681,16.681,0,0,0,0,18.543c3.774,5.1,9.87,5.1,13.644,0l61.542-83.64a14.619,14.619,0,0,0,0-16.7L208.748,12.594a8.012,8.012,0,0,0-13.741,0Z" transform="translate(0 0)" fill="#db7350"/>
  </g>
</svg>
