<svg xmlns="http://www.w3.org/2000/svg" width="54" height="54" viewBox="0 0 54 54">
  <path id="linkedin-white" d="M27,0A27,27,0,1,1,0,27,27.013,27.013,0,0,1,27,0ZM18.559,42.174V21.088h-7.01V42.174Zm25.272,0V30.082c0-6.477-3.458-9.49-8.069-9.49a6.961,6.961,0,0,0-6.316,3.481V21.088H22.437c.093,1.978,0,21.085,0,21.085h7.008V30.4a4.791,4.791,0,0,1,.231-1.711,3.836,3.836,0,0,1,3.6-2.563c2.535,0,3.55,1.934,3.55,4.768V42.174h7.008ZM15.1,10.921a3.653,3.653,0,1,0-.093,7.287h.045a3.655,3.655,0,1,0,.048-7.287Z" fill="#fff" fill-rule="evenodd"/>
</svg>
