<svg xmlns="http://www.w3.org/2000/svg" width="161.287" height="179.09" viewBox="0 0 161.287 179.09">
  <g id="UX-logo" transform="translate(-353.74 -1907.17)">
    <g id="_1" data-name="1" transform="matrix(0.966, 0.259, -0.259, 0.966, 344.405, 1881.37)">
      <path id="Path_1" data-name="Path 1" d="M123.818,165.992a4.4,4.4,0,0,1-3.957-2.478L101.5,121.5,56.616,100.273a4.4,4.4,0,0,1,.294-8.047L166.092,48.311a4.4,4.4,0,0,1,5.73,5.73L127.9,163.232a4.4,4.4,0,0,1-3.934,2.757ZM69.4,96.709l34.988,17.027a4.4,4.4,0,0,1,2.034,2.034l17.027,34.988,36.341-90.434Z" fill="#ff64cb"/>
    </g>
    <line id="Line_1" data-name="Line 1" x1="2" y2="121" transform="translate(506.133 1919.101) rotate(9)" fill="none" stroke="rgba(112,112,112,0.59)" stroke-width="2" opacity="0.57"/>
    <g id="Ellipse_5" data-name="Ellipse 5" transform="translate(481.85 2037.257) rotate(9)" fill="#fff" stroke="rgba(112,112,112,0.59)" stroke-width="2" opacity="0.57">
      <ellipse cx="5.5" cy="6" rx="5.5" ry="6" stroke="none"/>
      <ellipse cx="5.5" cy="6" rx="4.5" ry="5" fill="none"/>
    </g>
    <g id="Ellipse_7" data-name="Ellipse 7" transform="translate(504.162 1907.17) rotate(9)" fill="#fff" stroke="rgba(112,112,112,0.59)" stroke-width="2" opacity="0.57">
      <ellipse cx="5.5" cy="6" rx="5.5" ry="6" stroke="none"/>
      <ellipse cx="5.5" cy="6" rx="4.5" ry="5" fill="none"/>
    </g>
  </g>
</svg>
